<svg width="40" height="28" viewBox="0 0 40 28" fill="none" xmlns="http://www.w3.org/2000/svg">
<path d="M37.8889 11.7778H2.11111C0.945177 11.7778 0 12.7229 0 13.8889V14.1111C0 15.277 0.945177 16.2222 2.11111 16.2222H37.8889C39.0548 16.2222 40 15.277 40 14.1111V13.8889C40 12.7229 39.0548 11.7778 37.8889 11.7778Z" fill="#031634"/>
<path d="M37.8889 22.8889H2.11111C0.945177 22.8889 0 23.8341 0 25V25.2222C0 26.3882 0.945177 27.3333 2.11111 27.3333H37.8889C39.0548 27.3333 40 26.3882 40 25.2222V25C40 23.8341 39.0548 22.8889 37.8889 22.8889Z" fill="#031634"/>
<path d="M37.8889 0.666687H2.11111C0.945177 0.666687 0 1.61186 0 2.7778V3.00002C0 4.16596 0.945177 5.11113 2.11111 5.11113H37.8889C39.0548 5.11113 40 4.16596 40 3.00002V2.7778C40 1.61186 39.0548 0.666687 37.8889 0.666687Z" fill="#031634"/>
</svg>
