<svg width="38" height="36" viewBox="0 0 38 36" fill="none" xmlns="http://www.w3.org/2000/svg">
<path d="M10.4164 11.2845H10.9582C11.2599 12.8216 12.2396 14.2222 13.7207 15.2336C15.2019 16.2451 17.087 16.801 19.0363 16.801C20.9855 16.801 22.8706 16.2451 24.3518 15.2336C25.8329 14.2222 26.8126 12.8216 27.1143 11.2845H27.6561C28.1674 11.2845 28.6577 11.1226 29.0197 10.8345C29.3817 10.5463 29.5857 10.1553 29.587 9.74721V8.20601C29.587 7.99746 29.4832 7.79746 29.2984 7.64999C29.1137 7.50253 28.8631 7.41968 28.6019 7.41968H27.2276V4.27437C27.2295 3.72022 27.0946 3.17121 26.8304 2.65875C26.5662 2.14629 26.178 1.68044 25.688 1.28787C25.198 0.895301 24.6159 0.58371 23.9748 0.370932C23.3338 0.158154 22.6465 0.0483663 21.9522 0.0478516H16.1203C15.4263 0.0483649 14.7392 0.158181 14.0984 0.371007C13.4577 0.583833 12.8758 0.895486 12.3862 1.28811C11.8966 1.68073 11.5089 2.14661 11.2453 2.65905C10.9816 3.17148 10.8472 3.72041 10.8498 4.27437V7.41968H9.47064C9.20937 7.41968 8.9588 7.50253 8.77405 7.64999C8.5893 7.79746 8.48551 7.99746 8.48551 8.20601V9.74721C8.48682 10.1553 8.69082 10.5463 9.05279 10.8345C9.41475 11.1226 9.90513 11.2845 10.4164 11.2845ZM19.0363 16.0221C17.1267 16.019 15.2965 15.4119 13.9467 14.3337C12.5969 13.2556 11.8376 11.7943 11.835 10.2701V7.57695C12.0172 7.26635 13.0713 5.74873 15.9577 5.74873C17.9667 5.76158 19.9409 5.3302 21.6616 4.5024C22.9211 5.57861 24.4949 6.38907 26.2425 6.86139V10.2623C26.2412 11.7882 25.4818 13.2514 24.131 14.3312C22.7801 15.4109 20.948 16.019 19.0363 16.0221ZM28.6019 8.20601V9.74721C28.6006 9.94674 28.5003 10.1377 28.3231 10.2785C28.1459 10.4192 27.9061 10.4982 27.6561 10.4982H27.2276V8.20601H28.6019ZM11.8547 4.27437C11.8547 3.36682 12.306 2.49639 13.1095 1.8543C13.913 1.2122 15.003 0.850948 16.14 0.849907H21.9522C23.0897 0.850947 24.1802 1.21207 24.9845 1.85406C25.7887 2.49604 26.2412 3.36646 26.2425 4.27437V6.04361C24.6546 5.55601 23.2419 4.7633 22.1296 3.73573C22.0491 3.65526 21.9323 3.60318 21.8043 3.59069C21.6763 3.57819 21.5473 3.60627 21.4449 3.66889C19.8224 4.53407 17.9088 4.98517 15.9577 4.9624C15.1973 4.9371 14.4385 5.03754 13.7291 5.25743C13.0196 5.47732 12.3747 5.81191 11.835 6.24019L11.8547 4.27437ZM9.49035 8.20601H10.8695V10.4982H10.4164C10.1664 10.4982 9.92659 10.4192 9.74938 10.2785C9.57216 10.1377 9.47195 9.94674 9.47064 9.74721L9.49035 8.20601ZM0.565074 33.9504H12.7363C13.0521 33.9514 13.3545 34.052 13.5778 34.2302C13.8011 34.4084 13.9271 34.6498 13.9284 34.9019C13.9284 35.0061 13.9803 35.1061 14.0726 35.1799C14.165 35.2536 14.2903 35.295 14.4209 35.295H23.6565C23.7871 35.295 23.9124 35.2536 24.0048 35.1799C24.0972 35.1061 24.1491 35.0061 24.1491 34.9019C24.1491 34.6502 24.274 34.4088 24.4965 34.2305C24.7189 34.0521 25.0209 33.9514 25.3362 33.9504H37.5074C37.6381 33.9504 37.7634 33.909 37.8557 33.8352C37.9481 33.7615 38 33.6615 38 33.5572V31.9846C38 31.8803 37.9481 31.7803 37.8557 31.7066C37.7634 31.6328 37.6381 31.5914 37.5074 31.5914H36.4386C36.4461 31.5273 36.4461 31.4628 36.4386 31.3988V30.1171C36.4373 29.8584 36.3083 29.6106 36.0797 29.4273C35.851 29.2441 35.541 29.1401 35.217 29.1381H34.8968V25.7529C34.893 23.8316 33.9385 21.9893 32.241 20.627C30.5436 19.2648 28.2407 18.4929 25.8336 18.4794H22.8783C22.8059 18.4793 22.7344 18.4919 22.6688 18.5164C22.6033 18.5409 22.5453 18.5765 22.499 18.6209L19.051 21.9432L15.6031 18.6209C15.5568 18.5765 15.4988 18.5409 15.4332 18.5164C15.3677 18.4919 15.2962 18.4793 15.2238 18.4794H12.2192C9.81768 18.5001 7.52307 19.275 5.83226 20.6364C4.14145 21.9977 3.19056 23.836 3.18552 25.7529V29.1381H2.87028C2.54625 29.1401 2.2363 29.2441 2.00763 29.4273C1.77896 29.6106 1.65 29.8584 1.64872 30.1171V31.4027C1.64121 31.4668 1.64121 31.5313 1.64872 31.5953H0.565074C0.434438 31.5953 0.309153 31.6368 0.216779 31.7105C0.124405 31.7842 0.0725098 31.8842 0.0725098 31.9885V33.5612C0.0738076 33.6648 0.126275 33.7638 0.218509 33.8366C0.310742 33.9095 0.435287 33.9504 0.565074 33.9504ZM23.1147 19.2657H25.2475L23.8338 24.3965L19.785 22.4543L23.1147 19.2657ZM18.2876 22.4543L14.2387 24.3965L12.825 19.2657H14.9578L18.2876 22.4543ZM4.13617 25.7529C4.14175 24.0949 4.94101 22.5013 6.37038 21.2983C7.79975 20.0952 9.75113 19.3737 11.8251 19.2814L13.421 25.1121C13.4373 25.1734 13.4717 25.2308 13.5214 25.2793C13.5711 25.3279 13.6346 25.3662 13.7067 25.3912C13.7695 25.4111 13.8362 25.4217 13.9037 25.4227C13.9921 25.4226 14.0789 25.4036 14.1549 25.3676L19.0363 23.0165L23.9176 25.3519C23.9936 25.3879 24.0804 25.4069 24.1688 25.4069C24.2363 25.406 24.303 25.3953 24.3658 25.3755C24.4356 25.3521 24.4977 25.3161 24.5472 25.2704C24.5967 25.2247 24.6324 25.1705 24.6515 25.1121L26.2474 19.2972C28.318 19.3893 30.2665 20.1086 31.6954 21.3083C33.1242 22.508 33.9257 24.0976 33.9363 25.7529V29.1381L22.1739 29.1027C21.6989 29.1014 21.2283 29.1755 20.7894 29.3206C20.3506 29.4657 19.9522 29.679 19.6175 29.948C19.3922 30.1219 19.1967 30.3189 19.0363 30.5338C18.8788 30.3194 18.6867 30.1224 18.4649 29.948C18.1301 29.679 17.7318 29.4657 17.2929 29.3206C16.8541 29.1755 16.3835 29.1014 15.9085 29.1027L4.14602 29.1381L4.13617 25.7529ZM2.59937 31.4027V30.1171C2.60063 30.0663 2.62646 30.0178 2.67145 29.9819C2.71645 29.946 2.77711 29.9254 2.84072 29.9244L15.8986 29.889C16.2457 29.8875 16.5897 29.9407 16.9109 30.0458C17.232 30.1509 17.5239 30.3056 17.7698 30.5011C18.0157 30.6967 18.2107 30.9291 18.3435 31.1851C18.4763 31.441 18.5443 31.7154 18.5437 31.9924C18.5437 32.0967 18.5956 32.1967 18.688 32.2705C18.7803 32.3442 18.9056 32.3856 19.0363 32.3856C19.1669 32.3856 19.2922 32.3442 19.3845 32.2705C19.4769 32.1967 19.5288 32.0967 19.5288 31.9924C19.5282 31.7161 19.5959 31.4423 19.7281 31.1869C19.8603 30.9314 20.0544 30.6994 20.2992 30.5039C20.544 30.3085 20.8348 30.1536 21.1548 30.0481C21.4748 29.9425 21.8178 29.8885 22.164 29.889L35.2269 29.9244C35.2905 29.9254 35.3511 29.946 35.3961 29.9819C35.4411 30.0178 35.4669 30.0663 35.4682 30.1171V31.4027C35.4682 31.4538 35.4428 31.5028 35.3975 31.5389C35.3523 31.575 35.2909 31.5953 35.2269 31.5953H23.6516C23.199 31.5957 22.7595 31.7166 22.4027 31.9388C22.0458 32.1609 21.792 32.4717 21.6813 32.822H16.3912C16.2805 32.4717 16.0267 32.1609 15.6698 31.9388C15.313 31.7166 14.8735 31.5957 14.4209 31.5953H2.84072C2.77671 31.5953 2.71532 31.575 2.67006 31.5389C2.6248 31.5028 2.59937 31.4538 2.59937 31.4027ZM1.05764 32.3856H14.4209C14.5581 32.3856 14.6938 32.4072 14.8205 32.4491C14.9472 32.4909 15.0623 32.5523 15.1593 32.6297C15.2563 32.7071 15.3332 32.799 15.3857 32.9001C15.4381 33.0013 15.4652 33.1097 15.4652 33.2191C15.4652 33.3234 15.5171 33.4234 15.6094 33.4971C15.7018 33.5709 15.8271 33.6123 15.9577 33.6123H22.1148C22.2454 33.6123 22.3707 33.5709 22.4631 33.4971C22.5555 33.4234 22.6073 33.3234 22.6073 33.2191C22.6073 33.1097 22.6344 33.0013 22.6868 32.9001C22.7393 32.799 22.8162 32.7071 22.9132 32.6297C23.0102 32.5523 23.1253 32.4909 23.252 32.4491C23.3787 32.4072 23.5145 32.3856 23.6516 32.3856H37.0149V33.1719H25.3362C24.8451 33.1731 24.3688 33.3065 23.9844 33.5505C23.6001 33.7945 23.3301 34.1349 23.2181 34.5166H14.8445C14.7316 34.1346 14.4606 33.7941 14.0754 33.5501C13.6902 33.3062 13.2133 33.1729 12.7216 33.1719H1.05764V32.3856Z" fill="#031634"/>
<path d="M30.321 27.0776H26.218V27.864H30.321V27.0776Z" fill="#031634"/>
</svg>
