<svg width="31" height="29" viewBox="0 0 31 29" fill="none" xmlns="http://www.w3.org/2000/svg">
<path d="M10.6623 1H3.70532C2.21121 1 1 2.12704 1 3.51732V9.99088C1 11.3812 2.21121 12.5082 3.70532 12.5082H10.6623C12.1564 12.5082 13.3676 11.3812 13.3676 9.99088V3.51732C13.3676 2.12704 12.1564 1 10.6623 1Z" stroke="#031634" stroke-width="2" stroke-linecap="round" stroke-linejoin="round"/>
<path d="M27.388 1H20.6709C19.2283 1 18.0588 2.12704 18.0588 3.51732V9.99088C18.0588 11.3812 19.2283 12.5082 20.6709 12.5082H27.388C28.8306 12.5082 30 11.3812 30 9.99088V3.51732C30 2.12704 28.8306 1 27.388 1Z" stroke="#031634" stroke-width="2" stroke-linecap="round" stroke-linejoin="round"/>
<path d="M10.6623 16.4918H3.70532C2.21121 16.4918 1 17.6189 1 19.0091V25.4827C1 26.873 2.21121 28 3.70532 28H10.6623C12.1564 28 13.3676 26.873 13.3676 25.4827V19.0091C13.3676 17.6189 12.1564 16.4918 10.6623 16.4918Z" stroke="#031634" stroke-width="2" stroke-linecap="round" stroke-linejoin="round"/>
<path d="M27.388 16.4918H20.6709C19.2283 16.4918 18.0588 17.6189 18.0588 19.0091V25.4827C18.0588 26.873 19.2283 28 20.6709 28H27.388C28.8306 28 30 26.873 30 25.4827V19.0091C30 17.6189 28.8306 16.4918 27.388 16.4918Z" stroke="#031634" stroke-width="2" stroke-linecap="round" stroke-linejoin="round"/>
</svg>
