<svg width="29" height="34" viewBox="0 0 29 34" fill="none" xmlns="http://www.w3.org/2000/svg">
<path d="M28.3526 8.56788L20.3132 0.786105C19.8244 0.310478 19.1572 0.0396355 18.4702 0.0396355L3.32939 0C1.49294 0 0 1.47973 0 3.30296V30.5061C0 32.2964 1.53918 33.8157 3.36241 33.8157H25.7565C27.5467 33.8157 29 32.3294 29 30.4995V10.1467C29 9.53235 28.7688 8.97084 28.3526 8.56788ZM20.2802 4.43257L24.4353 8.44897H21.0002C20.6171 8.44897 20.2802 8.15171 20.2802 7.81481V4.43257ZM25.7565 31.1733H3.36241C2.99248 31.1733 2.64237 30.8497 2.64237 30.4995V3.30296C2.64237 2.95285 2.96606 2.64237 3.32939 2.64237L17.6378 2.682V7.81481C17.6378 9.61822 19.144 11.0913 21.0002 11.0913H26.3576V30.4995C26.3576 30.8298 26.133 31.1733 25.7565 31.1733Z" fill="#031634"/>
<path d="M5.74713 17.6312C5.74713 18.3578 6.34166 18.9524 7.06832 18.9524H18.6287C19.3553 18.9524 19.9499 18.3578 19.9499 17.6312C19.9499 16.9045 19.3553 16.31 18.6287 16.31H7.06832C6.34166 16.31 5.74713 16.9045 5.74713 17.6312Z" fill="#031634"/>
<path d="M7.00228 13.6677H14.6651C15.3918 13.6677 15.9863 13.0731 15.9863 12.3465C15.9863 11.6198 15.3918 11.0253 14.6651 11.0253H7.00228C6.27562 11.0253 5.68109 11.6198 5.68109 12.3465C5.68109 13.0731 6.27562 13.6677 7.00228 13.6677Z" fill="#031634"/>
<path d="M21.9316 21.5948H7.06832C6.34166 21.5948 5.74713 22.1893 5.74713 22.9159C5.74713 23.6426 6.34166 24.2371 7.06832 24.2371H21.9316C22.6583 24.2371 23.2528 23.6426 23.2528 22.9159C23.2528 22.1893 22.6583 21.5948 21.9316 21.5948Z" fill="#031634"/>
</svg>
