<svg width="37" height="21" viewBox="0 0 37 21" fill="none" xmlns="http://www.w3.org/2000/svg">
<path fill-rule="evenodd" clip-rule="evenodd" d="M21.672 3.5C21.672 5.43375 20.0556 7 18.06 7C16.0644 7 14.448 5.43375 14.448 3.5C14.448 1.56625 16.0644 0 18.06 0C20.0556 0 21.672 1.56625 21.672 3.5ZM19.866 3.5C19.866 4.46723 19.0582 5.25 18.06 5.25C17.0618 5.25 16.254 4.46723 16.254 3.5C16.254 2.53277 17.0618 1.75 18.06 1.75C19.0582 1.75 19.866 2.53277 19.866 3.5ZM12.642 4.8125C12.642 6.98793 10.8235 8.75 8.5785 8.75C6.33346 8.75 4.515 6.98793 4.515 4.8125C4.515 2.63699 6.33346 0.875 8.5785 0.875C10.8235 0.875 12.642 2.63699 12.642 4.8125ZM10.836 4.8125C10.836 6.02149 9.82617 7 8.5785 7C7.33082 7 6.321 6.02149 6.321 4.8125C6.321 3.60351 7.33082 2.625 8.5785 2.625C9.82617 2.625 10.836 3.60351 10.836 4.8125ZM0 15.2727C0 12.0989 6.01624 10.5 9.03 10.5C9.75348 10.5 10.65 10.5921 11.5948 10.7761C12.7621 9.89581 15.0557 8.75 18.06 8.75C21.0643 8.75 23.3579 9.89581 24.5252 10.7761C25.47 10.5921 26.3665 10.5 27.09 10.5C30.1038 10.5 36.12 12.0989 36.12 15.2727V21H0V15.2727ZM1.806 15.2727C1.806 15.0656 1.89077 14.7898 2.26851 14.4212C2.66274 14.0366 3.28715 13.6474 4.10804 13.2997C5.75951 12.6003 7.77068 12.25 9.03 12.25C10.2893 12.25 12.3005 12.6003 13.952 13.2997C14.7728 13.6474 15.3972 14.0366 15.7915 14.4212C16.1692 14.7898 16.254 15.0656 16.254 15.2727V19.25H1.806V15.2727ZM22.1694 11.4147C21.1595 10.9334 19.7533 10.5 18.06 10.5C16.3667 10.5 14.9605 10.9334 13.9506 11.4147C16.1542 12.199 18.06 13.4864 18.06 15.2727C18.06 13.4864 19.9658 12.199 22.1694 11.4147ZM20.3285 14.4212C19.9508 14.7898 19.866 15.0656 19.866 15.2727V19.25H34.314V15.2727C34.314 15.0656 34.2292 14.7898 33.8515 14.4212C33.4572 14.0366 32.8328 13.6474 32.012 13.2997C30.3605 12.6003 28.3493 12.25 27.09 12.25C25.8307 12.25 23.8195 12.6003 22.168 13.2997C21.3472 13.6474 20.7228 14.0366 20.3285 14.4212ZM27.5415 8.75C29.7866 8.75 31.605 6.98793 31.605 4.8125C31.605 2.63699 29.7866 0.875 27.5415 0.875C25.2965 0.875 23.478 2.63699 23.478 4.8125C23.478 6.98793 25.2965 8.75 27.5415 8.75ZM27.5415 7C28.7892 7 29.799 6.02149 29.799 4.8125C29.799 3.60351 28.7892 2.625 27.5415 2.625C26.2938 2.625 25.284 3.60351 25.284 4.8125C25.284 6.02149 26.2938 7 27.5415 7Z" fill="#031634"/>
</svg>
