<svg width="44" height="41" viewBox="0 0 44 41" fill="none" xmlns="http://www.w3.org/2000/svg">
<path d="M22 11.07L24.134 16.0116L25.168 18.4068L27.808 18.6226L33.242 19.0758L29.106 22.5932L27.104 24.2979L27.698 26.8442L28.93 32.0447L24.266 29.2826L22 27.9016L19.734 29.2395L15.07 32.0016L16.302 26.8011L16.896 24.2547L14.894 22.55L10.758 19.0326L16.192 18.5795L18.832 18.3637L19.866 15.9684L22 11.07ZM22 0L15.818 14.3068L0 15.6232L12.012 25.83L8.404 41L22 32.9511L35.596 41L31.988 25.83L44 15.6232L28.182 14.3068L22 0Z" fill="#FBFBFB"/>
</svg>
