<svg width="46" height="42" viewBox="0 0 46 42" fill="none" xmlns="http://www.w3.org/2000/svg">
<path d="M12.9771 13.2179H13.6094C13.9615 15.0117 15.1048 16.6461 16.8333 17.8265C18.5617 19.0068 20.7616 19.6555 23.0364 19.6555C25.3111 19.6555 27.511 19.0068 29.2395 17.8265C30.968 16.6461 32.1113 15.0117 32.4633 13.2179H33.0956C33.6923 13.2179 34.2645 13.029 34.6869 12.6927C35.1093 12.3564 35.3474 11.9001 35.3489 11.4239V9.62532C35.3489 9.38195 35.2278 9.14855 35.0122 8.97646C34.7966 8.80437 34.5042 8.70769 34.1993 8.70769H32.5956V5.03716C32.5978 4.39048 32.4403 3.74979 32.132 3.15176C31.8237 2.55373 31.3707 2.0101 30.7989 1.55197C30.2271 1.09385 29.5477 0.730227 28.7996 0.481919C28.0515 0.23361 27.2495 0.10549 26.4393 0.104889H19.6335C18.8236 0.105488 18.0218 0.233641 17.274 0.482006C16.5263 0.73037 15.8473 1.09406 15.2759 1.55225C14.7046 2.01044 14.2521 2.55411 13.9444 3.15211C13.6367 3.75012 13.4799 4.3907 13.483 5.03716V8.70769H11.8735C11.5686 8.70769 11.2762 8.80437 11.0606 8.97646C10.845 9.14855 10.7238 9.38195 10.7238 9.62532V11.4239C10.7254 11.9001 10.9634 12.3564 11.3858 12.6927C11.8082 13.029 12.3805 13.2179 12.9771 13.2179ZM23.0364 18.7466C20.808 18.743 18.6722 18.0344 17.097 16.7763C15.5218 15.5181 14.6356 13.8128 14.6326 12.0341V8.89122C14.8453 8.52875 16.0754 6.75772 19.4438 6.75772C21.7882 6.77272 24.0921 6.26931 26.1001 5.30328C27.5699 6.55919 29.4065 7.50498 31.4459 8.05617V12.0249C31.4444 13.8057 30.5583 15.5133 28.9818 16.7733C27.4054 18.0333 25.2673 18.7429 23.0364 18.7466ZM34.1993 9.62532V11.4239C34.1978 11.6567 34.0808 11.8796 33.874 12.0438C33.6672 12.208 33.3874 12.3002 33.0956 12.3002H32.5956V9.62532H34.1993ZM14.6556 5.03716C14.6556 3.97808 15.1823 2.9623 16.12 2.21298C17.0576 1.46366 18.3296 1.04209 19.6565 1.04087H26.4393C27.7667 1.04209 29.0392 1.46351 29.9778 2.2127C30.9164 2.96189 31.4444 3.97765 31.4459 5.03716V7.10184C29.5929 6.53281 27.9443 5.60774 26.6462 4.40858C26.5523 4.31468 26.4161 4.2539 26.2667 4.23932C26.1173 4.22474 25.9667 4.2575 25.8472 4.33059C23.9538 5.34023 21.7206 5.86666 19.4438 5.84009C18.5564 5.81056 17.6709 5.92777 16.843 6.18438C16.015 6.44099 15.2625 6.83145 14.6326 7.33124L14.6556 5.03716ZM11.8965 9.62532H13.5059V12.3002H12.9771C12.6854 12.3002 12.4056 12.208 12.1987 12.0438C11.9919 11.8796 11.875 11.6567 11.8735 11.4239L11.8965 9.62532ZM1.48082 39.6686H15.6845C16.053 39.6698 16.4059 39.7872 16.6664 39.9952C16.927 40.2031 17.074 40.4848 17.0756 40.7789C17.0756 40.9006 17.1361 41.0173 17.2439 41.1034C17.3517 41.1894 17.4979 41.2378 17.6504 41.2378H28.4281C28.5806 41.2378 28.7268 41.1894 28.8346 41.1034C28.9424 41.0173 29.003 40.9006 29.003 40.7789C29.003 40.4853 29.1487 40.2035 29.4084 39.9954C29.668 39.7873 30.0203 39.6698 30.3883 39.6686H44.5919C44.7444 39.6686 44.8906 39.6203 44.9984 39.5342C45.1062 39.4482 45.1668 39.3315 45.1668 39.2098V37.3745C45.1668 37.2528 45.1062 37.1361 44.9984 37.0501C44.8906 36.9641 44.7444 36.9157 44.5919 36.9157H43.3446C43.3534 36.8409 43.3534 36.7657 43.3446 36.6909V35.1952C43.3431 34.8933 43.1926 34.6041 42.9257 34.3903C42.6589 34.1764 42.2972 34.0551 41.919 34.0527H41.5454V30.1023C41.5409 27.8601 40.427 25.7102 38.4461 24.1204C36.4652 22.5307 33.7778 21.6299 30.9688 21.6142H27.5199C27.4355 21.6141 27.3521 21.6288 27.2756 21.6574C27.1991 21.6859 27.1314 21.7276 27.0773 21.7794L23.0536 25.6564L19.0299 21.7794C18.9759 21.7276 18.9082 21.6859 18.8317 21.6574C18.7552 21.6288 18.6718 21.6141 18.5873 21.6142H15.0809C12.2785 21.6383 9.60068 22.5427 7.62754 24.1314C5.65439 25.7201 4.54472 27.8652 4.53884 30.1023V34.0527H4.17095C3.79282 34.0551 3.43111 34.1764 3.16426 34.3903C2.89741 34.6041 2.74691 34.8933 2.74541 35.1952V36.6955C2.73665 36.7703 2.73665 36.8455 2.74541 36.9203H1.48082C1.32837 36.9203 1.18216 36.9686 1.07437 37.0547C0.966567 37.1407 0.906006 37.2574 0.906006 37.3791V39.2144C0.90752 39.3353 0.968749 39.4508 1.07638 39.5359C1.18402 39.6209 1.32936 39.6686 1.48082 39.6686ZM27.7958 22.5318H30.2848L28.6351 28.5194L23.9101 26.2528L27.7958 22.5318ZM22.1627 26.2528L17.4377 28.5194L15.788 22.5318H18.2769L22.1627 26.2528ZM5.64823 30.1023C5.65474 28.1674 6.58747 26.3077 8.25552 24.9038C9.92357 23.4998 12.2008 22.6579 14.6211 22.5502L16.4835 29.3544C16.5025 29.426 16.5427 29.4929 16.6007 29.5496C16.6587 29.6063 16.7328 29.651 16.8169 29.6802C16.8901 29.7033 16.968 29.7158 17.0468 29.7169C17.15 29.7169 17.2512 29.6947 17.34 29.6527L23.0364 26.9089L28.7328 29.6343C28.8215 29.6763 28.9228 29.6985 29.026 29.6985C29.1047 29.6974 29.1826 29.685 29.2559 29.6618C29.3373 29.6345 29.4097 29.5925 29.4676 29.5392C29.5254 29.4859 29.567 29.4227 29.5893 29.3544L31.4517 22.5685C33.868 22.676 36.1419 23.5154 37.8094 24.9154C39.4768 26.3155 40.4122 28.1706 40.4245 30.1023V34.0527L26.698 34.0114C26.1436 34.0099 25.5944 34.0963 25.0823 34.2657C24.5702 34.435 24.1053 34.6839 23.7147 34.9979C23.4517 35.2008 23.2236 35.4307 23.0364 35.6815C22.8527 35.4312 22.6285 35.2014 22.3696 34.9979C21.979 34.6839 21.5141 34.435 21.002 34.2657C20.4898 34.0963 19.9406 34.0099 19.3863 34.0114L5.65973 34.0527L5.64823 30.1023ZM3.85481 36.6955V35.1952C3.85628 35.1359 3.88642 35.0794 3.93893 35.0375C3.99144 34.9956 4.06223 34.9715 4.13647 34.9703L19.3748 34.929C19.7798 34.9272 20.1813 34.9894 20.5561 35.112C20.9309 35.2346 21.2715 35.4152 21.5585 35.6434C21.8454 35.8716 22.0729 36.1428 22.2279 36.4415C22.3829 36.7402 22.4623 37.0604 22.4616 37.3837C22.4616 37.5054 22.5221 37.6221 22.6299 37.7081C22.7377 37.7942 22.8839 37.8425 23.0364 37.8425C23.1888 37.8425 23.335 37.7942 23.4428 37.7081C23.5506 37.6221 23.6112 37.5054 23.6112 37.3837C23.6104 37.0612 23.6895 36.7417 23.8437 36.4436C23.998 36.1455 24.2245 35.8747 24.5102 35.6466C24.7959 35.4186 25.1353 35.2378 25.5087 35.1147C25.8822 34.9915 26.2824 34.9284 26.6865 34.929L41.9305 34.9703C42.0048 34.9715 42.0756 34.9956 42.1281 35.0375C42.1806 35.0794 42.2107 35.1359 42.2122 35.1952V36.6955C42.2122 36.7551 42.1825 36.8123 42.1297 36.8545C42.0769 36.8966 42.0052 36.9203 41.9305 36.9203H28.4224C27.8943 36.9208 27.3814 37.0618 26.965 37.3211C26.5485 37.5803 26.2523 37.943 26.1231 38.3518H19.9496C19.8205 37.943 19.5242 37.5803 19.1078 37.3211C18.6914 37.0618 18.1785 36.9208 17.6504 36.9203H4.13647C4.06177 36.9203 3.99012 36.8966 3.9373 36.8545C3.88448 36.8123 3.85481 36.7551 3.85481 36.6955ZM2.05564 37.8425H17.6504C17.8104 37.8425 17.9689 37.8677 18.1167 37.9166C18.2646 37.9654 18.3989 38.0371 18.5121 38.1274C18.6252 38.2177 18.715 38.325 18.7762 38.443C18.8375 38.561 18.869 38.6875 18.869 38.8152C18.869 38.9369 18.9295 39.0536 19.0373 39.1396C19.1451 39.2257 19.2913 39.274 19.4438 39.274H26.629C26.7814 39.274 26.9276 39.2257 27.0354 39.1396C27.1432 39.0536 27.2038 38.9369 27.2038 38.8152C27.2038 38.6875 27.2353 38.561 27.2966 38.443C27.3578 38.325 27.4476 38.2177 27.5607 38.1274C27.6739 38.0371 27.8082 37.9654 27.9561 37.9166C28.1039 37.8677 28.2624 37.8425 28.4224 37.8425H44.0171V38.7602H30.3883C29.8152 38.7615 29.2594 38.9172 28.8108 39.2019C28.3623 39.4867 28.0472 39.8839 27.9166 40.3293H18.1447C18.0129 39.8835 17.6967 39.4862 17.2472 39.2015C16.7977 38.9168 16.2411 38.7613 15.6673 38.7602H2.05564V37.8425Z" fill="#F5F5F5"/>
<path d="M36.2054 31.6485H31.4172V32.5661H36.2054V31.6485Z" fill="#F5F5F5"/>
</svg>
